<?xml version="1.0" encoding="utf-8"?>
<!-- Generator: Adobe Illustrator 25.2.0, SVG Export Plug-In . SVG Version: 6.00 Build 0)  -->
<svg version="1.1" xmlns="http://www.w3.org/2000/svg" xmlns:xlink="http://www.w3.org/1999/xlink" x="0px" y="0px"
	 viewBox="0 0 200 35.53" style="enable-background:new 0 0 200 35.53;" xml:space="preserve">
<style type="text/css">
	.st0{fill:#E4C69E;}
	.st1{fill:#CAA77E;}
	.st2{fill:#AA3326;}
	.st3{fill:#393A3C;}
	.st4{font-family:'HGSMinchoE';}
	.st5{font-size:38.1237px;}
</style>
<g id="レイヤー_2">
	<g>
		
			<ellipse transform="matrix(0.943 -0.3327 0.3327 0.943 -4.6188 8.7636)" class="st0" cx="23.28" cy="17.87" rx="17.3" ry="14.91"/>
		<path class="st1" d="M28.73,32.87c9.01-3.18,15.01-11.02,12.01-19.49C37.75,4.89,28.3,1.12,20.52,3.08
			C14.49,4.6,10.18,8.59,8.16,12.13c-2.25,3.95-2.48,7.47-1.2,11.49C9.71,32.19,19.72,36.05,28.73,32.87z"/>
	</g>
	<g id="レイヤー_5">
		<g>
			<g>
				<path d="M23.09,7.3c0.64,0,0.64-1,0-1C22.45,6.3,22.45,7.3,23.09,7.3L23.09,7.3z"/>
			</g>
		</g>
		<g>
			<g>
				<path d="M23.09,7.3c0.64,0,0.64-1,0-1C22.45,6.3,22.45,7.3,23.09,7.3L23.09,7.3z"/>
			</g>
		</g>
		<g>
			<g>
				<path d="M23.09,7.3c0.64,0,0.64-1,0-1C22.45,6.3,22.45,7.3,23.09,7.3L23.09,7.3z"/>
			</g>
		</g>
		<g>
			<g>
				<path d="M23.09,7.3c0.64,0,0.64-1,0-1C22.45,6.3,22.45,7.3,23.09,7.3L23.09,7.3z"/>
			</g>
		</g>
		<g>
			<g>
				<path d="M34.4,9.46c0.64,0,0.64-1,0-1C33.76,8.46,33.76,9.46,34.4,9.46L34.4,9.46z"/>
			</g>
		</g>
		<g>
			<g>
				<path d="M33.04,16.88c0.64,0,0.64-1,0-1C32.39,15.88,32.39,16.88,33.04,16.88L33.04,16.88z"/>
			</g>
		</g>
		<g>
			<g>
				<path d="M31.15,28.7c0.64,0,0.64-1,0-1C30.5,27.7,30.5,28.7,31.15,28.7L31.15,28.7z"/>
			</g>
		</g>
		<g>
			<g>
				<path d="M13.84,28.7c0.64,0,0.64-1,0-1C13.19,27.7,13.19,28.7,13.84,28.7L13.84,28.7z"/>
			</g>
		</g>
		<g>
			<g>
				<path d="M10.89,13.53c0.64,0,0.64-1,0-1C10.24,12.53,10.24,13.53,10.89,13.53L10.89,13.53z"/>
			</g>
		</g>
		<g>
			<g>
				<path d="M25.78,15.17c0.64,0,0.64-1,0-1C25.14,14.17,25.14,15.17,25.78,15.17L25.78,15.17z"/>
			</g>
		</g>
		<g>
			<g>
				<path d="M23.01,26.27c0.64,0,0.64-1,0-1C22.36,25.27,22.36,26.27,23.01,26.27L23.01,26.27z"/>
			</g>
		</g>
		<g>
			<g>
				<path d="M14.35,20.39c0.64,0,0.64-1,0-1C13.71,19.39,13.71,20.39,14.35,20.39L14.35,20.39z"/>
			</g>
		</g>
		<g>
			<g>
				<path d="M37.97,19.79c0.64,0,0.64-1,0-1C37.32,18.79,37.32,19.79,37.97,19.79L37.97,19.79z"/>
			</g>
		</g>
	</g>
	<g id="リボン">
		<g>
			<g>
				<path class="st2" d="M17.98,19.8c-1.56,1.48-3.85,1.05-5.79,1.11c-0.83,0.03-1.72,0.18-2.37,0.74c-0.59,0.52-0.91,1.31-0.7,2.08
					c0.13,0.46,0.85,0.27,0.72-0.2c-0.23-0.83,0.5-1.5,1.23-1.72c0.86-0.26,1.81-0.16,2.7-0.15c1.68,0.02,3.46-0.13,4.74-1.35
					C18.87,19.99,18.33,19.46,17.98,19.8L17.98,19.8z"/>
			</g>
		</g>
		<g>
			<g>
				<path class="st2" d="M19.76,20.33c1.28,1.21,3.06,1.37,4.74,1.35c0.87-0.01,1.79-0.11,2.63,0.12c0.75,0.21,1.54,0.87,1.3,1.74
					c-0.13,0.47,0.59,0.66,0.72,0.2c0.21-0.75-0.08-1.53-0.65-2.04c-0.66-0.59-1.56-0.75-2.42-0.78c-1.94-0.07-4.24,0.36-5.79-1.11
					C19.94,19.47,19.41,19.99,19.76,20.33L19.76,20.33z"/>
			</g>
		</g>
		<g>
			<g>
				<path class="st2" d="M18.59,19.01c0-1.45-0.53-2.75-1.9-3.39c-1.15-0.54-2.61-0.81-3.86-0.49c-0.68,0.17-1.42,0.44-1.89,0.99
					c-0.4,0.47-0.56,1.12-0.3,1.7c0.55,1.23,2.35,1.52,3.52,1.69c1.39,0.2,2.78,0.22,4.15-0.14c0.47-0.12,0.27-0.84-0.2-0.72
					c-0.86,0.22-1.73,0.29-2.61,0.24c-0.66-0.04-1.31-0.11-1.96-0.25c-0.56-0.12-1.15-0.26-1.64-0.55c-0.4-0.24-0.75-0.62-0.6-1.11
					c0.18-0.58,0.84-0.85,1.37-1.02c1.06-0.34,2.09-0.2,3.14,0.12c0.59,0.18,1.19,0.49,1.55,1c0.4,0.56,0.48,1.26,0.48,1.93
					C17.84,19.49,18.59,19.49,18.59,19.01z"/>
			</g>
		</g>
		<g>
			<g>
				<path class="st2" d="M20.36,19.01c0-0.57,0.06-1.16,0.32-1.68c0.27-0.52,0.74-0.87,1.27-1.1c0.51-0.22,1.07-0.33,1.62-0.43
					c0.5-0.09,0.99-0.1,1.49,0.01c0.55,0.13,1.2,0.31,1.59,0.74c0.37,0.4,0.37,0.92-0.03,1.29c-0.39,0.36-0.93,0.52-1.43,0.65
					c-0.64,0.17-1.29,0.28-1.94,0.34c-1.07,0.1-2.12,0.07-3.17-0.2c-0.47-0.12-0.67,0.6-0.2,0.72c1.18,0.31,2.37,0.34,3.57,0.21
					c0.81-0.09,1.62-0.23,2.4-0.48c0.55-0.18,1.11-0.45,1.48-0.92c0.39-0.49,0.45-1.14,0.16-1.7c-0.32-0.62-0.95-0.96-1.58-1.19
					c-1.3-0.46-2.66-0.32-3.94,0.13c-0.71,0.25-1.35,0.65-1.78,1.28c-0.46,0.67-0.58,1.51-0.58,2.31
					C19.61,19.49,20.36,19.49,20.36,19.01z"/>
			</g>
		</g>
	</g>
	<g id="レイヤー_4">
		<g>
			<g>
				<path class="st2" d="M27.81,19.2c2.51-0.11,5.02-0.35,7.5-0.74c2.29-0.36,4.85-0.65,6.92-1.76c0.43-0.23,0.05-0.87-0.38-0.65
					c-1.02,0.54-2.14,0.8-3.26,1.04c-1.15,0.24-2.31,0.46-3.48,0.64c-2.42,0.38-4.86,0.61-7.3,0.72
					C27.33,18.47,27.33,19.22,27.81,19.2L27.81,19.2z"/>
			</g>
		</g>
		<g>
			<g>
				<path class="st2" d="M10.66,18.45c-1.5-0.06-2.99-0.18-4.48-0.34c-0.2-0.02-0.38,0.19-0.38,0.38c0,0.22,0.17,0.35,0.38,0.38
					c1.49,0.16,2.98,0.28,4.48,0.34C11.14,19.22,11.14,18.47,10.66,18.45L10.66,18.45z"/>
			</g>
		</g>
		<g>
			<g>
				<path class="st2" d="M19.59,3.2c-1.13,4.3-1.41,8.78-0.82,13.18c0.06,0.47,0.81,0.48,0.75,0c-0.58-4.34-0.32-8.74,0.79-12.98
					C20.44,2.93,19.71,2.73,19.59,3.2L19.59,3.2z"/>
			</g>
		</g>
		<g>
			<g>
				<path class="st2" d="M18.86,22.3c-1,3.82-1.34,7.77-0.99,11.7c0.04,0.48,0.79,0.48,0.75,0c-0.34-3.87-0.02-7.75,0.96-11.5
					C19.71,22.03,18.99,21.83,18.86,22.3L18.86,22.3z"/>
			</g>
		</g>
	</g>
</g>
<g id="レイヤー_1">
	<text transform="matrix(1 0 0 1 47.5777 30.1643)" class="st3 st4 st5">Plumeria</text>
</g>
</svg>
