<?xml version="1.0" encoding="utf-8"?>
<!-- Generator: Adobe Illustrator 25.2.0, SVG Export Plug-In . SVG Version: 6.00 Build 0)  -->
<svg version="1.1" id="レイヤー_1" xmlns="http://www.w3.org/2000/svg" xmlns:xlink="http://www.w3.org/1999/xlink" x="0px"
	 y="0px" viewBox="0 0 65.36 80.68" style="enable-background:new 0 0 65.36 80.68;" xml:space="preserve">
<style type="text/css">
	.st0{fill:#F7F8F8;}
	.st1{fill:none;stroke:#F7F8F8;stroke-width:2;stroke-linecap:round;stroke-miterlimit:10;}
	.st2{fill:#EFEFEF;stroke:#F7F8F8;stroke-width:7;stroke-miterlimit:10;}
	.st3{fill:#F7F8F8;stroke:#EFEFEF;stroke-width:4;stroke-linecap:round;stroke-miterlimit:10;}
	.st4{fill:none;stroke:#EFEFEF;stroke-width:5;stroke-linecap:round;stroke-miterlimit:10;}
</style>
<path class="st0" d="M56.22,57.44c-2.38-3.24-5.67-5.05-8.57-5.03c-0.96-0.08-6.01-0.16-9.74,6.49
	c-3.91,6.97-27.8-32.14-20.22-32.85c5.9-0.55,7.88-4.47,8.47-6.18c1.35-3.1,0.59-7.65-2.19-11.44c-2.31-3.14-5.43-4.98-8.25-5.18
	C13.89,2.81,7.93,2.36,3.53,13.1c-0.55,1.34-0.87,2.82-1.01,4.4c0,0,0,0,0,0s0,0.01,0,0.02c-0.2,2.28-0.01,4.76,0.43,7.31
	c1.44,12.35,7.58,37.12,33.33,48.86c16.61,9.57,22.23-5.49,22.23-5.49l-0.04-0.05C59.54,65.1,58.77,60.93,56.22,57.44z"/>
<path class="st1" d="M39.1,23.01c0,0,9.4,1.92,12.84,10.31"/>
<path class="st1" d="M41.7,19.15c0,0,9.4,1.92,12.84,10.31"/>
</svg>
